<?xml version="1.0" encoding="utf-8"?>
<!-- Generator: Adobe Illustrator 22.0.1, SVG Export Plug-In . SVG Version: 6.00 Build 0)  -->
<svg version="1.1" id="Layer_1" xmlns="http://www.w3.org/2000/svg" xmlns:xlink="http://www.w3.org/1999/xlink" x="0px" y="0px"
	 viewBox="0 0 291.6 77.4" style="enable-background:new 0 0 291.6 77.4;" xml:space="preserve">
<style type="text/css">
	.st0{fill:#FFC600;}
</style>
<g>
	<path class="st0" d="M18.5,21.6v-5.4h-6.2c-0.6,0-1.1-0.5-1.1-1.1c0-0.6,0.5-1.1,1.1-1.1h7.5c0.6,0,1.1,0.5,1.1,1.1v6.5
		c0,0.4-0.1,0.8-0.5,1.2c-1.8,2.1-4.4,4.1-8.9,4.1C4.4,26.9,0,23.1,0,13.9c0-8.8,4.4-13,11.6-13c3.5,0,6.6,1.5,8.3,3.9
		c0.2,0.3,0.3,0.5,0.3,0.8c0,0.7-0.5,1.2-1.2,1.2c-0.3,0-0.7-0.1-1-0.5c-1.3-1.7-3.6-3.1-6.4-3.1c-5.7,0-9,3.4-9,10.7
		c0,7.7,3.3,10.7,9,10.7C15,24.6,17.2,23.2,18.5,21.6z"/>
	<path class="st0" d="M31.4,12.1c0.7-1.7,2.6-3,5.2-3c0.6,0,1.1,0.5,1.1,1.1c0,0.6-0.5,1.1-1.1,1.1c-3.4,0-5.2,2.4-5.2,5.8v8.3
		c0,0.7-0.5,1.2-1.2,1.2s-1.2-0.5-1.2-1.2v-15c0-0.7,0.5-1.2,1.2-1.2s1.2,0.5,1.2,1.2V12.1z"/>
	<path class="st0" d="M46.1,13.2c-0.4,0.4-0.6,0.5-1,0.5c-0.6,0-1.1-0.5-1.1-1.1c0-0.3,0.1-0.4,0.2-0.6c1-1.6,3-2.9,6.2-2.9
		c4.3,0,6.7,2.5,6.7,6.3v10.2c0,0.6-0.5,1.1-1.1,1.1c-0.6,0-1.1-0.5-1.1-1.1v-1.3c-0.9,1.7-3.1,2.7-5.3,2.7c-3.9,0-6.4-1.9-6.4-5.3
		c0-3.3,2.5-5.2,6.5-5.2h5.2v-1c0-2.5-1.7-4.1-4.4-4.1C48.4,11.3,47.2,11.9,46.1,13.2z M54.8,20v-1.6h-5.2c-2.4,0-4.1,1-4.1,3.2
		c0,1.9,1.3,3.2,4.2,3.2C52.3,24.7,54.8,23.1,54.8,20z"/>
	<path class="st0" d="M79.3,15.6v9.9c0,0.7-0.5,1.2-1.2,1.2c-0.7,0-1.2-0.5-1.2-1.2v-9.4c0-2.9-0.9-4.9-4.4-4.9
		c-3.7,0-4.9,2.2-4.9,5.2v9.2c0,0.7-0.5,1.2-1.2,1.2s-1.2-0.5-1.2-1.2v-15c0-0.7,0.5-1.2,1.2-1.2s1.2,0.5,1.2,1.2v1.2
		c0.7-1.4,2.5-2.6,4.9-2.6C78.2,9,79.3,12.5,79.3,15.6z"/>
	<path class="st0" d="M98.9,11.5V1.2c0-0.7,0.5-1.2,1.2-1.2s1.2,0.5,1.2,1.2v18.4c0,4.9-3,7.3-7.3,7.3c-4.8,0-7.6-2.9-7.6-8.9
		c0-6.1,2.7-8.9,7.4-8.9C96.2,9,98,10.3,98.9,11.5z M98.9,14.5c0,0-1.4-3.3-4.9-3.3c-3.4,0-5.2,2.2-5.2,6.7c0,4.6,1.8,6.8,5.2,6.8
		c2.9,0,4.9-1.6,4.9-5.2V14.5z"/>
	<path class="st0" d="M116.3,9c5.9,0,7.1,4.7,7.1,7.2c0,1.1,0,2.4-1.5,2.4h-10.8c0,3.7,2.1,6,5.6,6c2.1,0,3.4-0.8,4.4-1.6
		c0.2-0.1,0.4-0.2,0.7-0.2c0.6,0,1.1,0.5,1.1,1.1c0,0.4-0.2,0.6-0.4,0.9c-0.6,0.6-2.5,2.1-5.8,2.1c-4.9,0-8-2.7-8-8.9
		C108.7,12.2,111.5,9,116.3,9z M116.3,11.2c-3.2,0-5,2.1-5.2,5.4h10C121,13.9,120.1,11.2,116.3,11.2z"/>
	<path class="st0" d="M132.7,13.6c0,3.9,9.7,2.4,9.7,8.4c0,3.4-2.8,4.9-6.3,4.9c-3,0-5.4-1.4-6.3-2.7c-0.2-0.3-0.3-0.4-0.3-0.7
		c0-0.6,0.5-1.1,1.1-1.1c0.2,0,0.5,0.1,0.8,0.4c1.1,1.1,2.6,1.8,4.7,1.8c2.1,0,3.9-0.7,3.9-2.6c0-3.8-9.7-2.3-9.7-8.4
		c0-3.1,2.5-4.5,5.7-4.5c2.5,0,4.5,0.9,5.6,2.4c0.1,0.1,0.3,0.4,0.3,0.7c0,0.6-0.5,1.1-1.1,1.1c-0.2,0-0.5,0-0.8-0.3
		c-1-1-2.1-1.6-4-1.6C134.3,11.3,132.7,11.9,132.7,13.6z"/>
	<path class="st0" d="M162.4,4.4c0-1.1,0.5-1.5,1.4-1.5s1.4,0.4,1.4,1.5c0,0.9-0.5,1.4-1.4,1.4S162.4,5.3,162.4,4.4z M165,25.5
		c0,0.7-0.5,1.2-1.2,1.2s-1.2-0.5-1.2-1.2v-15c0-0.7,0.5-1.2,1.2-1.2s1.2,0.5,1.2,1.2V25.5z"/>
	<path class="st0" d="M184.9,11.5V1.2c0-0.7,0.5-1.2,1.2-1.2c0.7,0,1.2,0.5,1.2,1.2v18.4c0,4.9-3,7.3-7.3,7.3
		c-4.8,0-7.6-2.9-7.6-8.9c0-6.1,2.7-8.9,7.5-8.9C182.2,9,184.1,10.3,184.9,11.5z M184.9,14.5c0,0-1.4-3.3-4.9-3.3
		c-3.4,0-5.2,2.2-5.2,6.7c0,4.6,1.8,6.8,5.2,6.8c2.9,0,4.9-1.6,4.9-5.2V14.5z"/>
	<path class="st0" d="M202.3,9c5.9,0,7.1,4.7,7.1,7.2c0,1.1,0,2.4-1.5,2.4h-10.8c0,3.7,2.1,6,5.6,6c2.2,0,3.4-0.8,4.4-1.6
		c0.2-0.1,0.4-0.2,0.7-0.2c0.6,0,1.1,0.5,1.1,1.1c0,0.4-0.2,0.6-0.4,0.9c-0.6,0.6-2.5,2.1-5.8,2.1c-4.9,0-8-2.7-8-8.9
		C194.7,12.2,197.5,9,202.3,9z M202.3,11.2c-3.2,0-5,2.1-5.2,5.4h10C207.1,13.9,206.2,11.2,202.3,11.2z"/>
	<path class="st0" d="M218.7,13.2c-0.4,0.4-0.6,0.5-1,0.5c-0.6,0-1.1-0.5-1.1-1.1c0-0.3,0.1-0.4,0.2-0.6c1-1.6,3-2.9,6.2-2.9
		c4.3,0,6.7,2.5,6.7,6.3v10.2c0,0.6-0.5,1.1-1.1,1.1c-0.6,0-1.1-0.5-1.1-1.1v-1.3c-0.9,1.7-3.1,2.7-5.3,2.7c-3.9,0-6.4-1.9-6.4-5.3
		c0-3.3,2.5-5.2,6.5-5.2h5.2v-1c0-2.5-1.7-4.1-4.4-4.1C221,11.3,219.8,11.9,218.7,13.2z M227.3,20v-1.6h-5.2c-2.4,0-4.1,1-4.1,3.2
		c0,1.9,1.3,3.2,4.2,3.2C224.9,24.7,227.3,23.1,227.3,20z"/>
	<path class="st0" d="M239.8,13.6c0,3.9,9.7,2.4,9.7,8.4c0,3.4-2.8,4.9-6.3,4.9c-3,0-5.4-1.4-6.3-2.7c-0.2-0.3-0.3-0.4-0.3-0.7
		c0-0.6,0.5-1.1,1.1-1.1c0.2,0,0.5,0.1,0.8,0.4c1.1,1.1,2.6,1.8,4.7,1.8c2.1,0,3.9-0.7,3.9-2.6c0-3.8-9.7-2.3-9.7-8.4
		c0-3.1,2.5-4.5,5.7-4.5c2.5,0,4.5,0.9,5.6,2.4c0.1,0.1,0.3,0.4,0.3,0.7c0,0.6-0.5,1.1-1.1,1.1c-0.2,0-0.5,0-0.8-0.3
		c-1-1-2.1-1.6-4-1.6C241.4,11.3,239.8,11.9,239.8,13.6z"/>
	<path class="st0" d="M274.2,25.7L268,11c0-0.1-0.1-0.3-0.1-0.5c0-0.7,0.5-1.2,1.2-1.2c0.7,0,1,0.4,1.1,0.8l5.2,12.8l5.2-12.8
		c0.1-0.4,0.4-0.8,1.1-0.8c0.7,0,1.2,0.5,1.2,1.2c0,0.3-0.1,0.4-0.1,0.5l-7.3,17.4c-1.5,3.6-3.4,5.5-6.9,5.5c-0.6,0-1.1-0.5-1.1-1.1
		s0.5-1.1,1.1-1.1C271.9,31.6,272.7,29.4,274.2,25.7z"/>
	<path class="st0" d="M14,53.6c0.6-1.1,1.4-2,3.3-2c0.6,0,1.1,0.5,1.1,1.1c0,0.6-0.5,1.1-1.1,1.1c-1.1,0-1.5,0.6-1.8,1.1
		c0.9,1,1.3,2.4,1.3,4c0,3.8-2.5,6.2-6.8,6.2c-1.6,0-3-0.3-4-0.9c-0.4,0.3-0.7,0.7-0.7,1.3c0,0.8,0.5,1.6,2.7,1.6H12
		c3.6,0,6.5,1.6,6.5,5c0,3.9-3.5,5.3-8,5.3c-3.8,0-7.9-1.1-7.9-5.2c0-1.7,1.1-3,2.8-3.7c-1.4-0.4-2.3-1.6-2.3-3c0-1.1,0.6-2,1.5-2.6
		c-0.9-1.1-1.3-2.4-1.3-4c0-3.8,2.5-6.2,6.8-6.2C11.6,52.6,13,53,14,53.6z M12,69.3H8.1C6,69.7,5,70.8,5,72.2c0,2.3,2.6,3.1,5.5,3.1
		c2.9,0,5.5-0.9,5.5-3.3C16,70.1,14.4,69.3,12,69.3z M14.5,58.9c0-2.4-1.6-4.1-4.4-4.1c-2.9,0-4.4,1.6-4.4,4.1s1.6,4.1,4.4,4.1
		C12.9,62.9,14.5,61.3,14.5,58.9z"/>
	<path class="st0" d="M27.8,55.7c0.7-1.7,2.6-3,5.2-3c0.6,0,1.1,0.5,1.1,1.1S33.6,55,32.9,55c-3.4,0-5.2,2.4-5.2,5.8v8.3
		c0,0.7-0.5,1.2-1.2,1.2s-1.2-0.5-1.2-1.2V54c0-0.7,0.5-1.2,1.2-1.2s1.2,0.5,1.2,1.2V55.7z"/>
	<path class="st0" d="M42.5,56.8c-0.4,0.4-0.6,0.5-1,0.5c-0.6,0-1.1-0.5-1.1-1.1c0-0.3,0.1-0.4,0.2-0.6c1-1.6,3-2.9,6.2-2.9
		c4.3,0,6.7,2.5,6.7,6.3v10.2c0,0.6-0.5,1.1-1.1,1.1c-0.6,0-1.1-0.5-1.1-1.1v-1.3c-0.9,1.7-3.1,2.7-5.3,2.7c-3.9,0-6.4-1.9-6.4-5.3
		c0-3.3,2.5-5.2,6.5-5.2h5.2v-1c0-2.5-1.7-4.1-4.4-4.1C44.8,54.9,43.6,55.5,42.5,56.8z M51.1,63.6V62h-5.2c-2.4,0-4.1,1-4.1,3.2
		c0,1.9,1.3,3.2,4.2,3.2C48.7,68.3,51.1,66.7,51.1,63.6z"/>
	<path class="st0" d="M75.7,59.2v9.9c0,0.7-0.5,1.2-1.2,1.2c-0.7,0-1.2-0.5-1.2-1.2v-9.4c0-2.9-0.9-4.9-4.4-4.9
		c-3.7,0-4.9,2.2-4.9,5.2v9.2c0,0.7-0.5,1.2-1.2,1.2s-1.2-0.5-1.2-1.2V54c0-0.7,0.5-1.2,1.2-1.2S64,53.4,64,54v1.2
		c0.7-1.4,2.5-2.6,4.9-2.6C74.6,52.6,75.7,56.1,75.7,59.2z"/>
	<path class="st0" d="M95.2,55.1V44.8c0-0.7,0.5-1.2,1.2-1.2s1.2,0.5,1.2,1.2v18.4c0,4.9-3,7.3-7.3,7.3c-4.8,0-7.6-2.9-7.6-8.9
		c0-6.1,2.7-8.9,7.4-8.9C92.6,52.6,94.4,53.9,95.2,55.1z M95.2,58.1c0,0-1.4-3.3-4.9-3.3c-3.4,0-5.2,2.2-5.2,6.7
		c0,4.6,1.8,6.8,5.2,6.8c2.9,0,4.9-1.6,4.9-5.2V58.1z"/>
	<path class="st0" d="M112.7,52.6c5.9,0,7.1,4.7,7.1,7.2c0,1.1,0,2.4-1.5,2.4h-10.8c0,3.7,2.1,6,5.6,6c2.1,0,3.4-0.8,4.4-1.6
		c0.2-0.1,0.4-0.2,0.7-0.2c0.6,0,1.1,0.5,1.1,1.1c0,0.4-0.2,0.6-0.4,0.9c-0.6,0.6-2.5,2.1-5.8,2.1c-4.9,0-8-2.7-8-8.9
		C105,55.8,107.8,52.6,112.7,52.6z M112.7,54.8c-3.2,0-5,2.1-5.2,5.4h10C117.4,57.5,116.5,54.8,112.7,54.8z"/>
	<path class="st0" d="M129.1,57.2c0,3.9,9.7,2.4,9.7,8.4c0,3.4-2.8,4.9-6.3,4.9c-3,0-5.4-1.4-6.3-2.7c-0.2-0.3-0.3-0.4-0.3-0.7
		c0-0.6,0.5-1.1,1.1-1.1c0.2,0,0.5,0.1,0.8,0.4c1.1,1.1,2.6,1.8,4.7,1.8c2.1,0,3.9-0.7,3.9-2.6c0-3.8-9.7-2.3-9.7-8.4
		c0-3.1,2.5-4.5,5.7-4.5c2.5,0,4.5,0.9,5.6,2.4c0.1,0.1,0.3,0.4,0.3,0.7c0,0.6-0.5,1.1-1.1,1.1c-0.2,0-0.5,0-0.8-0.3
		c-1-1-2.1-1.6-4-1.6C130.7,54.9,129.1,55.5,129.1,57.2z"/>
	<path class="st0" d="M184.5,59.2v9.9c0,0.7-0.5,1.2-1.2,1.2c-0.7,0-1.2-0.5-1.2-1.2v-9.4c0-2.9-1-4.9-4.6-4.9
		c-3.2,0-4.6,1.7-4.6,4.4v9.9c0,0.7-0.5,1.2-1.2,1.2c-0.7,0-1.2-0.5-1.2-1.2v-9.4c0-2.9-0.9-4.9-4.6-4.9c-3.4,0-4.6,2.1-4.6,5.2v9.2
		c0,0.7-0.5,1.2-1.2,1.2s-1.2-0.5-1.2-1.2V54c0-0.7,0.5-1.2,1.2-1.2s1.2,0.5,1.2,1.2v1.2c0.6-1.4,2.4-2.6,4.8-2.6c3,0,5,1.1,5.9,2.6
		c0.9-1.4,2.6-2.6,5.4-2.6C183.3,52.6,184.5,56.1,184.5,59.2z"/>
	<path class="st0" d="M194.6,56.8c-0.4,0.4-0.6,0.5-1,0.5c-0.6,0-1.1-0.5-1.1-1.1c0-0.3,0.1-0.4,0.2-0.6c1-1.6,3-2.9,6.2-2.9
		c4.3,0,6.7,2.5,6.7,6.3v10.2c0,0.6-0.5,1.1-1.1,1.1s-1.1-0.5-1.1-1.1v-1.3c-0.9,1.7-3.1,2.7-5.3,2.7c-3.9,0-6.4-1.9-6.4-5.3
		c0-3.3,2.5-5.2,6.5-5.2h5.2v-1c0-2.5-1.7-4.1-4.4-4.1C196.9,54.9,195.7,55.5,194.6,56.8z M203.3,63.6V62H198c-2.4,0-4.1,1-4.1,3.2
		c0,1.9,1.3,3.2,4.2,3.2C200.8,68.3,203.3,66.7,203.3,63.6z"/>
	<path class="st0" d="M216.1,55.7c0.7-1.7,2.6-3,5.2-3c0.6,0,1.1,0.5,1.1,1.1s-0.5,1.1-1.1,1.1c-3.4,0-5.2,2.4-5.2,5.8v8.3
		c0,0.7-0.5,1.2-1.2,1.2c-0.7,0-1.2-0.5-1.2-1.2V54c0-0.7,0.5-1.2,1.2-1.2c0.7,0,1.2,0.5,1.2,1.2V55.7z"/>
	<path class="st0" d="M235.4,52.6c3.3,0,5.1,1.7,5.7,2.6c0.2,0.3,0.3,0.4,0.3,0.7c0,0.6-0.5,1.1-1.1,1.1c-0.4,0-0.6-0.1-0.9-0.4
		c-0.6-0.6-1.6-1.7-4-1.7c-3.4,0-5.2,2.2-5.2,6.7c0,4.6,1.8,6.8,5.2,6.8c2.1,0,3.4-1,4.3-1.6c0.3-0.2,0.4-0.3,0.7-0.3
		c0.6,0,1.1,0.5,1.1,1.1c0,0.3-0.1,0.6-0.5,0.9c-0.8,0.7-2.6,2-5.6,2c-4.8,0-7.6-2.9-7.6-8.9C227.8,55.5,230.6,52.6,235.4,52.6z"/>
	<path class="st0" d="M250.8,56.8c-0.4,0.4-0.6,0.5-1,0.5c-0.6,0-1.1-0.5-1.1-1.1c0-0.3,0.1-0.4,0.2-0.6c1-1.6,3-2.9,6.2-2.9
		c4.3,0,6.7,2.5,6.7,6.3v10.2c0,0.6-0.5,1.1-1.1,1.1c-0.6,0-1.1-0.5-1.1-1.1v-1.3c-0.9,1.7-3.1,2.7-5.3,2.7c-3.9,0-6.4-1.9-6.4-5.3
		c0-3.3,2.5-5.2,6.5-5.2h5.2v-1c0-2.5-1.7-4.1-4.4-4.1C253.1,54.9,252,55.5,250.8,56.8z M259.5,63.6V62h-5.2c-2.4,0-4.1,1-4.1,3.2
		c0,1.9,1.3,3.2,4.2,3.2C257,68.3,259.5,66.7,259.5,63.6z"/>
	<path class="st0" d="M271.9,57.2c0,3.9,9.7,2.4,9.7,8.4c0,3.4-2.8,4.9-6.3,4.9c-3,0-5.4-1.4-6.3-2.7c-0.2-0.3-0.3-0.4-0.3-0.7
		c0-0.6,0.5-1.1,1.1-1.1c0.2,0,0.5,0.1,0.8,0.4c1.1,1.1,2.6,1.8,4.7,1.8c2.1,0,3.9-0.7,3.9-2.6c0-3.8-9.7-2.3-9.7-8.4
		c0-3.1,2.5-4.5,5.7-4.5c2.5,0,4.5,0.9,5.6,2.4c0.1,0.1,0.3,0.4,0.3,0.7c0,0.6-0.5,1.1-1.1,1.1c-0.2,0-0.5,0-0.8-0.3
		c-1-1-2.1-1.6-4-1.6C273.5,54.9,271.9,55.5,271.9,57.2z"/>
	<path class="st0" d="M288.2,68.5c0-1.2,0.7-1.8,1.7-1.8c1.1,0,1.7,0.6,1.7,1.8c0,1.2-0.7,1.7-1.7,1.7
		C288.8,70.3,288.2,69.8,288.2,68.5z"/>
</g>
<g>
</g>
<g>
</g>
<g>
</g>
<g>
</g>
<g>
</g>
<g>
</g>
<g>
</g>
<g>
</g>
<g>
</g>
<g>
</g>
<g>
</g>
<g>
</g>
<g>
</g>
<g>
</g>
<g>
</g>
</svg>
