<?xml version="1.0" encoding="utf-8"?>
<!-- Generator: Adobe Illustrator 22.0.1, SVG Export Plug-In . SVG Version: 6.00 Build 0)  -->
<svg version="1.1" id="Layer_1" xmlns="http://www.w3.org/2000/svg" xmlns:xlink="http://www.w3.org/1999/xlink" x="0px" y="0px"
	 viewBox="0 0 34 34.2" style="enable-background:new 0 0 34 34.2;" xml:space="preserve">
<style type="text/css">
	.st0{fill:#FFC600;}
</style>
<g>
	<path id="XMLID_48_" class="st0" d="M33.1,6.2l-1.4-4.9C31.6,1,31.3,0.8,31,0.9C21.9,3.5,12.1,3.5,3,0.9C2.7,0.8,2.4,1,2.3,1.3
		L0.9,6.2C0.8,6.5,1,6.7,1.3,6.8C3,7.3,4.7,7.7,6.4,8v14.2c0,1.9,0.3,3.5,0.8,4.9c0.5,1.4,1.2,2.5,2.1,3.5c0.9,0.9,2,1.6,3.3,2.1
		c1.3,0.5,2.7,0.7,4.3,0.7c1.6,0,3.1-0.2,4.4-0.7c1.3-0.5,2.4-1.1,3.4-2.1c0.9-0.9,1.7-2.1,2.2-3.5c0.5-1.4,0.8-3,0.8-4.9V8
		c1.7-0.3,3.4-0.7,5.1-1.2C33,6.7,33.2,6.5,33.1,6.2z M21.9,22.4c0,1.9-0.4,3.4-1.3,4.3c-0.9,0.9-2,1.4-3.5,1.4
		c-1.5,0-2.7-0.5-3.6-1.4c-0.9-0.9-1.3-2.4-1.3-4.3V8.8c1.2,0.1,2.5,0.2,3.7,0.2c0.1,2.1,0.3,5.6,0.6,8.3c0.1,1.2,1.1,1.2,1.2,0
		c0.3-2.8,0.5-6.2,0.6-8.3c1.2,0,2.5-0.1,3.7-0.2V22.4z"/>
</g>
<g>
</g>
<g>
</g>
<g>
</g>
<g>
</g>
<g>
</g>
<g>
</g>
<g>
</g>
<g>
</g>
<g>
</g>
<g>
</g>
<g>
</g>
<g>
</g>
<g>
</g>
<g>
</g>
<g>
</g>
</svg>
