<?xml version="1.0" encoding="utf-8"?>
<!-- Generator: Adobe Illustrator 22.0.1, SVG Export Plug-In . SVG Version: 6.00 Build 0)  -->
<svg version="1.1" id="Layer_1" xmlns="http://www.w3.org/2000/svg" xmlns:xlink="http://www.w3.org/1999/xlink" x="0px" y="0px"
	 viewBox="0 0 429 87.3" style="enable-background:new 0 0 429 87.3;" xml:space="preserve">
<style type="text/css">
	.st0{fill:#FFC600;}
</style>
<g id="XMLID_21_">
	<path id="XMLID_35_" class="st0" d="M53.5,83.3H3.8c-1.1,0-2-0.9-2-2V5.6c0-1.1,0.9-2,2-2H26c1.1,0,2,0.9,2,2v53h25.5
		c1.1,0,2,0.9,2,2v20.6C55.6,82.4,54.6,83.3,53.5,83.3"/>
	<path id="XMLID_34_" class="st0" d="M113.8,83.3H65c-1.1,0-2-0.9-2-2V5.6c0-1.1,0.9-2,2-2h48.3c1.1,0,2,0.9,2,2v20.6
		c0,1.1-0.9,2-2,2h-24v8.9h21.9c1.1,0,2,0.9,2,2v8.2c0,1.1-0.9,2-2,2H89.2v9.2h24.5c1.1,0,2,0.9,2,2v20.6
		C115.8,82.4,114.9,83.3,113.8,83.3"/>
	<path id="XMLID_33_" class="st0" d="M188.6,85.4c-0.5,0-1.1-0.2-1.5-0.6l-38.5-40.3v36.8c0,1.1-0.9,2-2,2h-21.4c-1.1,0-2-0.9-2-2
		V5.6c0-1.1,0.9-2,2-2h18.2c0.6,0,1.1,0.2,1.5,0.6L165.2,26V5.6c0-1.1,0.9-2,2-2h21.4c1.1,0,2,0.9,2,2v77.8c0,0.8-0.5,1.6-1.3,1.9
		C189.1,85.4,188.9,85.4,188.6,85.4"/>
	<path id="XMLID_32_" class="st0" d="M240.4,85.6c-22.9,0-42.3-19.1-42.3-41.6c0-23.2,19-42.1,42.3-42.1c18,0,28.4,9,33.8,16.6
		c0.7,0.9,0.5,2.2-0.4,2.8L255,35c-0.4,0.3-1,0.5-1.5,0.4c-0.5-0.1-1-0.4-1.3-0.8c-2.7-3.9-7.1-6.2-11.7-6.2
		c-8,0-14.7,7.2-14.7,15.7c0,8.5,6.6,15.3,14.7,15.3c5.5,0,7.4-3.1,7.5-5.1h-7.5c-1.1,0-2-0.9-2-2V41.2c0-1.1,0.9-2,2-2h39.3
		c1,0,1.8,0.7,2,1.6c0,0.1,0.7,3.5,0.7,6.5C282.4,70.3,263.5,85.6,240.4,85.6"/>
	<path id="XMLID_31_" class="st0" d="M320,85.6c-16.7,0-30.2-13.6-30.2-30.4V5.6c0-1.1,0.9-2,2-2H314c1.1,0,2,0.9,2,2v50.2
		c0,2.1,1.8,3.9,3.9,3.9c2.1,0,3.9-1.8,3.9-3.9V5.6c0-1.1,0.9-2,2-2h22.2c1.1,0,2,0.9,2,2v49.6C350.2,72,336.6,85.6,320,85.6"/>
	<path id="XMLID_22_" class="st0" d="M425.2,83.3L425.2,83.3h-23.9c-0.8,0-1.5-0.5-1.9-1.2l-6.1-9.7h-10.5l-6.1,9.7
		c-0.3,0.7-1,1.2-1.9,1.2h-23.8c-0.7,0-1.3-0.4-1.7-1c-0.4-0.6-0.4-1.3-0.1-1.9l37-77.6c0.7-1.4,3-1.4,3.7,0l36.8,77.1
		c0.3,0.4,0.5,0.8,0.5,1.3C427.2,82.4,426.3,83.3,425.2,83.3"/>
</g>
<g>
</g>
<g>
</g>
<g>
</g>
<g>
</g>
<g>
</g>
<g>
</g>
<g>
</g>
<g>
</g>
<g>
</g>
<g>
</g>
<g>
</g>
<g>
</g>
<g>
</g>
<g>
</g>
<g>
</g>
</svg>
