<?xml version="1.0" encoding="utf-8"?>
<!-- Generator: Adobe Illustrator 22.0.1, SVG Export Plug-In . SVG Version: 6.00 Build 0)  -->
<svg version="1.1" id="Layer_1" xmlns="http://www.w3.org/2000/svg" xmlns:xlink="http://www.w3.org/1999/xlink" x="0px" y="0px"
	 viewBox="0 0 95 156.2" style="enable-background:new 0 0 95 156.2;" xml:space="preserve">
<style type="text/css">
	.st0{fill:#FF173A;}
	.st1{fill:#FFC600;}
</style>
<g>
	<path id="XMLID_27_" class="st0" d="M13.2,143.7c4.2,4.2,9.3,7.3,15.1,9.4c5.9,2.1,12.4,3.1,19.6,3.1c7,0,13.3-1,19.1-3.1
		c5.8-2.1,10.7-5.2,14.9-9.4c4.1-4.2,7.4-9.4,9.6-15.7c2.3-6.3,3.4-13.7,3.4-22.3v-5.1V0H0v100.6v5.1c0,8.6,1.1,16,3.4,22.3
		C5.7,134.3,9,139.6,13.2,143.7z"/>
	<g>
		<path id="XMLID_24_" class="st1" d="M72.7,62l-2.2-7.8c-0.1-0.4-0.6-0.7-1-0.5c-14.4,4.1-29.6,4.1-44,0c-0.4-0.1-0.9,0.1-1,0.5
			L22.3,62c-0.1,0.4,0.2,0.9,0.6,1c2.6,0.7,5.3,1.4,8,1.9v22.4c0,3,0.4,5.6,1.2,7.8c0.8,2.2,1.9,4,3.4,5.5c1.4,1.5,3.2,2.5,5.2,3.3
			c2,0.7,4.2,1.1,6.7,1.1c2.5,0,4.8-0.4,6.9-1.1c2.1-0.7,3.8-1.8,5.3-3.3c1.5-1.5,2.6-3.3,3.4-5.5c0.8-2.2,1.2-4.8,1.2-7.8V64.9
			c2.7-0.5,5.4-1.1,8-1.9C72.6,62.8,72.8,62.4,72.7,62z M55.1,87.5c0,3-0.7,5.3-2,6.8c-1.4,1.5-3.2,2.2-5.4,2.2
			c-2.4,0-4.3-0.7-5.7-2.2c-1.4-1.5-2.1-3.8-2.1-6.8V66.1c1.9,0.2,3.8,0.3,5.8,0.3c0.1,3.3,0.5,8.8,0.9,13.2c0.2,1.8,1.7,1.8,1.9,0
			c0.4-4.4,0.8-9.8,0.9-13.2c1.9,0,3.8-0.1,5.8-0.3V87.5z"/>
		<g id="XMLID_13_">
			<path id="XMLID_20_" class="st1" d="M24,124.5h-7.3c-0.2,0-0.3-0.1-0.3-0.3v-11.1c0-0.2,0.1-0.3,0.3-0.3h3.2
				c0.2,0,0.3,0.1,0.3,0.3v7.8H24c0.2,0,0.3,0.1,0.3,0.3v3C24.3,124.4,24.1,124.5,24,124.5"/>
			<path id="XMLID_19_" class="st1" d="M32.8,124.5h-7.1c-0.2,0-0.3-0.1-0.3-0.3v-11.1c0-0.2,0.1-0.3,0.3-0.3h7.1
				c0.2,0,0.3,0.1,0.3,0.3v3c0,0.2-0.1,0.3-0.3,0.3h-3.5v1.3h3.2c0.2,0,0.3,0.1,0.3,0.3v1.2c0,0.2-0.1,0.3-0.3,0.3h-3.2v1.4h3.6
				c0.2,0,0.3,0.1,0.3,0.3v3C33.1,124.4,32.9,124.5,32.8,124.5"/>
			<path id="XMLID_18_" class="st1" d="M43.7,124.8c-0.1,0-0.2,0-0.2-0.1l-5.6-5.9v5.4c0,0.2-0.1,0.3-0.3,0.3h-3.1
				c-0.2,0-0.3-0.1-0.3-0.3v-11.1c0-0.2,0.1-0.3,0.3-0.3h2.7c0.1,0,0.2,0,0.2,0.1l3,3.2v-3c0-0.2,0.1-0.3,0.3-0.3h3.1
				c0.2,0,0.3,0.1,0.3,0.3v11.4c0,0.1-0.1,0.2-0.2,0.3C43.8,124.8,43.8,124.8,43.7,124.8"/>
			<path id="XMLID_17_" class="st1" d="M51.3,124.8c-3.4,0-6.2-2.8-6.2-6.1c0-3.4,2.8-6.2,6.2-6.2c2.6,0,4.1,1.3,4.9,2.4
				c0.1,0.1,0.1,0.3-0.1,0.4l-2.8,2c-0.1,0-0.1,0.1-0.2,0.1c-0.1,0-0.1-0.1-0.2-0.1c-0.4-0.6-1-0.9-1.7-0.9c-1.2,0-2.2,1.1-2.2,2.3
				c0,1.2,1,2.3,2.2,2.3c0.8,0,1.1-0.5,1.1-0.8h-1.1c-0.2,0-0.3-0.1-0.3-0.3v-1.6c0-0.2,0.1-0.3,0.3-0.3H57c0.1,0,0.3,0.1,0.3,0.2
				c0,0,0.1,0.5,0.1,1C57.4,122.6,54.7,124.8,51.3,124.8"/>
			<path id="XMLID_16_" class="st1" d="M62.9,124.8c-2.4,0-4.4-2-4.4-4.5v-7.3c0-0.2,0.1-0.3,0.3-0.3h3.2c0.2,0,0.3,0.1,0.3,0.3v7.4
				c0,0.3,0.3,0.6,0.6,0.6s0.6-0.3,0.6-0.6v-7.4c0-0.2,0.1-0.3,0.3-0.3H67c0.2,0,0.3,0.1,0.3,0.3v7.3
				C67.3,122.8,65.4,124.8,62.9,124.8"/>
			<path id="XMLID_14_" class="st1" d="M78.3,124.5L78.3,124.5h-3.5c-0.1,0-0.2-0.1-0.3-0.2l-0.9-1.4h-1.5l-0.9,1.4
				c0,0.1-0.2,0.2-0.3,0.2h-3.5c-0.1,0-0.2-0.1-0.3-0.1c-0.1-0.1-0.1-0.2,0-0.3l5.4-11.4c0.1-0.2,0.4-0.2,0.5,0l5.4,11.4
				c0,0.1,0.1,0.1,0.1,0.2C78.6,124.4,78.5,124.5,78.3,124.5"/>
		</g>
	</g>
</g>
<g>
</g>
<g>
</g>
<g>
</g>
<g>
</g>
<g>
</g>
<g>
</g>
<g>
</g>
<g>
</g>
<g>
</g>
<g>
</g>
<g>
</g>
<g>
</g>
<g>
</g>
<g>
</g>
<g>
</g>
</svg>
