<?xml version="1.0" encoding="utf-8"?>
<!-- Generator: Adobe Illustrator 22.0.1, SVG Export Plug-In . SVG Version: 6.00 Build 0)  -->
<svg version="1.1" id="Layer_1" xmlns="http://www.w3.org/2000/svg" xmlns:xlink="http://www.w3.org/1999/xlink" x="0px" y="0px"
	 viewBox="0 0 45 45" style="enable-background:new 0 0 45 45;" xml:space="preserve">
<style type="text/css">
	.st0{fill:#FFC600;}
	.st1{fill:#FF173A;}
</style>
<g>
	<rect class="st0" width="45" height="45"/>
	<path id="XMLID_28_" class="st1" d="M35.2,13.8L34,9.9c-0.1-0.2-0.3-0.3-0.5-0.3c-7.2,2-14.9,2-22.1,0C11.2,9.6,11,9.7,11,9.9
		l-1.1,3.9c-0.1,0.2,0.1,0.4,0.3,0.5c1.3,0.4,2.7,0.7,4,0.9v11.2c0,1.5,0.2,2.8,0.6,3.9c0.4,1.1,1,2,1.7,2.8
		c0.7,0.7,1.6,1.3,2.6,1.6c1,0.4,2.1,0.5,3.3,0.5c1.3,0,2.4-0.2,3.4-0.5c1-0.4,1.9-0.9,2.7-1.6c0.7-0.7,1.3-1.6,1.7-2.8
		c0.4-1.1,0.6-2.4,0.6-3.9V15.3c1.4-0.3,2.7-0.6,4-0.9C35.1,14.3,35.2,14,35.2,13.8z M26.3,26.7c0,1.5-0.3,2.7-1,3.4
		c-0.7,0.8-1.6,1.1-2.7,1.1c-1.2,0-2.2-0.4-2.9-1.1c-0.7-0.8-1.1-1.9-1.1-3.4V15.9c1,0.1,1.9,0.1,2.9,0.2c0.1,1.7,0.2,4.4,0.5,6.6
		c0.1,0.9,0.9,0.9,1,0c0.2-2.2,0.4-4.9,0.5-6.6c1,0,1.9-0.1,2.9-0.2V26.7z"/>
</g>
<g>
</g>
<g>
</g>
<g>
</g>
<g>
</g>
<g>
</g>
<g>
</g>
<g>
</g>
<g>
</g>
<g>
</g>
<g>
</g>
<g>
</g>
<g>
</g>
<g>
</g>
<g>
</g>
<g>
</g>
</svg>
