<?xml version="1.0" encoding="utf-8"?>
<!-- Generator: Adobe Illustrator 22.0.1, SVG Export Plug-In . SVG Version: 6.00 Build 0)  -->
<svg version="1.1" id="Layer_1" xmlns="http://www.w3.org/2000/svg" xmlns:xlink="http://www.w3.org/1999/xlink" x="0px" y="0px"
	 viewBox="0 0 255.2 404.3" style="enable-background:new 0 0 255.2 404.3;" xml:space="preserve">
<style type="text/css">
	.st0{fill:#FFC600;}
</style>
<g>
	<g>
		<path class="st0" d="M52.5,85.6H35v35.5H10.4V6h42.1c22,0,39.5,18.1,39.5,39.8C91.9,68,74.5,85.6,52.5,85.6z M50.3,28.7H35v34
			h15.3c10.7,0,16.4-7.1,16.4-16.9C66.8,36.4,59.5,28.7,50.3,28.7z"/>
		<path class="st0" d="M130.4,99.5l-9.2,21.5H95L146.7,3.8l51.6,117.2h-26.1l-8.9-21.5H130.4z M146.7,57.6l-7.9,19.9h16.1
			L146.7,57.6z"/>
		<path class="st0" d="M86.2,257c-7.9,3.3-15,4.8-23.4,4.8c-32.7,0-58.9-26.6-58.9-59.5c0-33.1,26.1-59.7,58.9-59.7
			c8.4,0,15.5,1.5,23.4,4.8V176c-5.6-5.4-13.6-9.2-23.4-9.2c-18.3,0-33.1,16.1-33.1,35.5s14.8,35.4,33.1,35.4
			c9.7,0,17.8-3.8,23.4-9.2V257z"/>
		<path class="st0" d="M117.1,144.6h24.7v40.6l29.4-40.6h28.9l-39.6,51.8l42.4,63.3h-30.6l-27.1-42.6l-3.5,4.3v38.3h-24.7V144.6z"/>
		<path class="st0" d="M226.6,144.6h24.7v115.1h-24.7V144.6z"/>
		<path class="st0" d="M9.5,283.2h21l47.5,51v-51h23.7v117.2l-68.6-76.6v74.5H9.5V283.2z"/>
		<path class="st0" d="M187.6,353.9v-22h58.7c0,0,0.7,3.6,0.7,9c0,32.9-24.7,59.5-58.9,59.5c-32.7,0-59-26.6-59-59.5
			c0-33.1,26.1-59.7,58.9-59.7c20.2,0,36.3,9.5,47.2,23.7l-20.2,15.5c-6.1-8.9-16-15-27-15c-18.3,0-33.1,16.1-33.1,35.5
			c0,19.4,15,35.4,33.2,35.4c19.6,0,28.8-11.7,30.8-22.4H187.6z"/>
	</g>
</g>
<g>
</g>
<g>
</g>
<g>
</g>
<g>
</g>
<g>
</g>
<g>
</g>
<g>
</g>
<g>
</g>
<g>
</g>
<g>
</g>
<g>
</g>
<g>
</g>
<g>
</g>
<g>
</g>
<g>
</g>
</svg>
