<?xml version="1.0" encoding="utf-8"?>
<!-- Generator: Adobe Illustrator 22.0.1, SVG Export Plug-In . SVG Version: 6.00 Build 0)  -->
<svg version="1.1" id="Layer_1" xmlns="http://www.w3.org/2000/svg" xmlns:xlink="http://www.w3.org/1999/xlink" x="0px" y="0px"
	 viewBox="0 0 340.6 427.1" style="enable-background:new 0 0 340.6 427.1;" xml:space="preserve">
<style type="text/css">
	.st0{fill:#FFC600;}
</style>
<g>
	<g>
		<path class="st0" d="M215.1,77.8c13.2,9.9,16,21.4,16,33.4v8.9h-24.7v-8.9c0-12.2-8.2-22.2-20.7-22.2h-15.1v31.1h-24.7V5h42.6
			c23.5,0,42.6,19.1,42.6,42.4C231.1,62.9,223.5,71.3,215.1,77.8z M186.2,27.7h-15.6V67h15.6c10.9,0,19.7-8.9,19.7-19.6
			C205.9,36.6,197,27.7,186.2,27.7z"/>
		<path class="st0" d="M262.2,5h71v24h-46.4v16.4h44.2v23.7h-44.2v26.8H334v24.2h-71.9V5z"/>
		<path class="st0" d="M153,167.6h-26.1v-24h77v24h-26.1v91.1H153V167.6z"/>
		<path class="st0" d="M278.6,141.6c32.7,0,59,26.6,59,59.7c0,32.9-26.1,59.5-58.9,59.5s-59-26.6-59-59.5
			C219.7,168.3,245.9,141.6,278.6,141.6z M278.8,236.7c18.1,0,33.1-16,33.1-35.4s-15.1-35.5-33.2-35.5c-18.3,0-33.1,16.1-33.1,35.5
			S260.5,236.7,278.8,236.7z"/>
		<path class="st0" d="M61.9,280.2c32.7,0,59,26.6,59,59.7c0,28.9-20.2,53-47.2,58.4v23.8H50.4v-23.8C23.2,392.9,3,368.8,3,339.9
			C3,306.8,29.1,280.2,61.9,280.2z M50.4,373v-13.6h23.4V373c12.3-5.1,21.4-17.9,21.4-33.1c0-19.4-15.1-35.5-33.2-35.5
			c-18.3,0-33.1,16.1-33.1,35.5C28.8,355,37.7,367.9,50.4,373z"/>
		<path class="st0" d="M171.1,282.2v77c0,8.9,7.4,16.3,16.4,16.3c9,0,16.4-7.4,16.4-16.3v-77h24.5v77c0,22.5-18.3,40.3-41.1,40.3
			s-40.8-17.8-40.8-40.3v-77H171.1z"/>
		<path class="st0" d="M262.2,282.2h71v24h-46.4v16.4h44.2v23.7h-44.2v26.8H334v24.2h-71.9V282.2z"/>
	</g>
</g>
<g>
</g>
<g>
</g>
<g>
</g>
<g>
</g>
<g>
</g>
<g>
</g>
<g>
</g>
<g>
</g>
<g>
</g>
<g>
</g>
<g>
</g>
<g>
</g>
<g>
</g>
<g>
</g>
<g>
</g>
</svg>
